<?xml version="1.0" encoding="UTF-8"?>
<svg width="80px" height="91px" viewBox="0 0 80 91" version="1.1" xmlns="http://www.w3.org/2000/svg" xmlns:xlink="http://www.w3.org/1999/xlink">
    <g stroke="none" stroke-width="1" fill="none" fill-rule="evenodd">
        <g id="decoration" fill="#000000" fill-rule="nonzero">
            <path d="M39.5028391,0.163850416 C43.7829653,0.393240997 47.1066246,4.00047091 49.6555205,7.12119114 C53.1280757,10.8998338 54.2460568,16.1027147 53.9785489,21.0938504 C60.7949527,16.8211357 69.7564669,16.6194737 76.7545741,20.6325485 C78.2031546,21.5425485 80.0378549,22.6441274 79.9116719,24.6330194 C80.3659306,32.9868698 76,41.7692521 68.229653,45.4117729 C76.1388013,49.4601385 81.4056782,59.1399169 79.5230284,68.0508587 C72.911041,74.6956233 61.5873817,74.5721053 53.9255521,69.9893352 C54.8895899,78.2952909 49.6025237,86.1827978 42.5160883,90.1152078 C41.029653,91.0025208 39.1621451,91.0806648 37.6555205,90.1983934 C30.4227129,86.2962327 25.1457413,78.3104155 26.0214511,69.9061496 C19.2050473,74.1788643 10.2435331,74.3805263 3.24542587,70.3674515 C1.79684543,69.4574515 -0.0378548896,68.3558726 0.0883280757,66.3669806 C-0.365930599,58.0131302 4,49.2307479 11.770347,45.5882271 C3.84858044,41.5297784 -1.56719243,31.6836288 0.5829653,22.7852909 C7.23533123,16.5161219 18.3091483,16.1884211 25.8624606,21.0585596 C25.3123028,12.4854017 31.0031546,3.0501385 39.5028391,0.163850416 Z M39.5104101,1.15199446 C30.7861199,4.34833795 26.0264984,14.1289474 26.8845426,22.8634349 C19.5053628,17.4311634 8.53501577,17.2017729 1.47381703,23.1936565 C0.36340694,27.5218283 1.72618297,32.2356787 3.65930599,36.1806925 C5.27192429,40.8088366 10.2788644,43.163241 13.9835962,45.5831856 C5.34258675,48.9534626 -0.368454259,58.6055125 1.48391167,67.7609695 C5.08264984,71.227036 10.50347,72.237867 15.3514196,72.2807202 C19.7072555,72.5252355 23.3009464,69.7977562 27.0839117,68.1340443 C25.7589905,77.2945429 31.2403785,87.0625485 40.0958991,89.9765651 C49.044795,86.9793629 53.9987382,76.9920499 53.1154574,68.1365651 C60.4946372,73.5688366 71.4649842,73.7982271 78.526183,67.8063435 C79.6365931,63.4781717 78.273817,58.7643213 76.340694,54.8193075 C74.7280757,50.1911634 69.718612,47.836759 66.0164038,45.4168144 C74.6574132,42.0465374 80.3684543,32.3944875 78.5160883,23.2390305 C74.9173502,19.772964 69.49653,18.762133 64.6485804,18.7192798 C60.2927445,18.4747645 56.6990536,21.2022438 52.9160883,22.8659557 C53.0649842,18.3159557 52.9640379,13.2290305 50.1274448,9.41761773 C47.5305994,5.88096953 44.1665615,1.60573407 39.5104101,1.15199446 Z"></path>
            <path d="M39.5078864,4.39875346 C41.9760252,4.32313019 43.8637224,6.40277008 45.4611987,8.03119114 C52.1236593,14.1113019 51.2025237,24.5422715 47.6996845,32.0415789 C52.3230284,26.0950693 59.2529968,20.5115512 67.3236593,21.4316343 C70.2536278,22.2281994 73.6630915,22.6138781 75.7728707,24.9884488 C77.3022082,34.6052078 69.148265,42.9893075 60.0782334,44.6605817 C54.0996845,45.8957618 47.9747634,45.0865928 41.9608833,44.6101662 C42.9728707,41.1088089 44.688959,37.7864266 46.5842271,34.6757895 C46.8391167,34.264903 46.2460568,32.9742659 45.9987382,34.7463712 C44.2851735,37.7612188 42.2637224,40.5769252 40.0858044,43.2716343 C37.4334385,40.7584211 35.3968454,36.6596399 33.4107256,34.1363435 C34.8164038,37.4587258 36.9766562,40.8189197 38.051735,44.4311911 C28.1842271,45.971385 15.8687697,46.5158726 8.38107256,38.265374 C5.12302839,34.7413296 3.50788644,29.435097 4.33564669,24.7867867 C12.126183,18.4974515 23.7955836,21.7114404 29.7059937,29.0595014 C30.6649842,29.9669806 31.1141956,31.3811357 32.3154574,32.0138504 C29.615142,26.0320499 28.4164038,18.8780886 31.1293375,12.6870637 C32.918612,9.18066482 35.8687697,6.01961219 39.5078864,4.39875346 Z M39.9015773,5.80282548 C38.0113565,8.09168975 42.2006309,7.36066482 39.9015773,5.80282548 Z M38.2132492,6.12044321 C36.6056782,6.96238227 39.0056782,7.49174515 37.6277603,9.02689751 C40.3583596,10.9149584 39.1369085,6.36243767 38.2132492,6.12044321 Z M41.2214511,6.10279778 C41.8675079,7.45645429 39.2706625,8.94623269 41.3652997,9.55626039 C43.6315457,9.45542936 40.6485804,7.05565097 42.5943218,7.02540166 C42.5488959,6.33975069 41.844795,5.99188366 41.2214511,6.10279778 Z M36.1463722,7.53963989 C34.2485804,9.86379501 38.3949527,8.63113573 36.1463722,7.53963989 Z M43.4599369,7.63542936 C42.2940063,9.99487535 45.9305994,8.35385042 43.4599369,7.63542936 Z M36.237224,9.65457064 C34.9930599,9.96714681 36.1211356,12.3669252 37.0018927,11.2804709 C37.8725552,10.7637119 37.5141956,9.0067313 36.237224,9.65457064 Z M42.7911672,9.64448753 C42.1097792,10.3377008 42.7911672,11.5123823 43.6239748,11.5779224 C44.7823344,11.0762881 44.348265,8.95127424 42.7911672,9.64448753 Z M34.384858,9.92429363 C33.5394322,9.93185596 33.1835962,11.3737396 34.162776,11.4569252 C35.30347,12.0493075 35.4044164,9.45290859 34.384858,9.92429363 Z M45.2466877,9.87135734 C44.7343849,10.1133518 44.7772871,11.9358726 45.837224,11.4569252 C47.0208202,11.2527424 46.2132492,9.65204986 45.2466877,9.87135734 Z M39.0611987,10.1536842 C36.7596215,11.6006094 41.1305994,12.7047091 41.6277603,11.1317452 C41.6126183,9.78313019 39.9394322,9.99487535 39.0611987,10.1536842 Z M35.1772871,11.9257895 C34.0189274,12.1098061 34.733123,14.1793629 35.770347,13.796205 C37.1305994,13.6978947 36.333123,11.3787812 35.1772871,11.9257895 Z M37.6630915,11.8652909 C37.8675079,13.3827978 35.1444795,14.9608033 36.8302839,15.8708033 C37.814511,14.8902216 40.577918,12.1728255 37.6630915,11.8652909 Z M41.9608833,11.9283102 C38.8315457,12.4375069 44.2826498,17.930277 43.7022082,14.6356233 C42.1249211,14.2776731 43.4094637,11.9636011 41.9608833,11.9283102 Z M44.0353312,11.9232687 C43.4246057,12.4551524 43.1974763,13.6827701 44.229653,13.796205 C45.7817035,14.144072 45.6757098,11.2073684 44.0353312,11.9232687 Z M32.688959,12.1803878 C31.7829653,12.515651 31.873817,14.4238781 33.1028391,13.6878116 C34.4630915,13.6172299 34.2132492,11.4165928 32.688959,12.1803878 Z M46.2914826,12.1324931 C45.2567823,13.1307202 46.9375394,14.0255956 47.8611987,13.7483102 C48.1539432,12.8458726 47.437224,11.6081717 46.2914826,12.1324931 Z M39.659306,13.1307202 C39.1495268,15.5582271 41.5596215,13.1534072 39.659306,13.1307202 Z M33.8473186,13.65 C32.8681388,14.0079501 32.7772871,15.5607479 33.8044164,15.9338227 C34.9173502,15.5859557 35.2908517,13.750831 33.8473186,13.65 Z M45.9634069,13.6676454 C44.6611987,13.9877839 45.2037855,15.5884765 46.1955836,15.9338227 C47.30347,15.5834349 47.0914826,13.7029363 45.9634069,13.6676454 Z M31.6870662,14.1944875 C30.9451104,14.4868975 31.0864353,15.3338781 31.192429,15.9590305 C32.3709779,16.3195014 32.7646688,13.9953463 31.6870662,14.1944875 Z M47.9747634,14.1919668 C46.9350158,17.5798892 50.5135647,14.7919114 47.9747634,14.1919668 Z M38.9602524,14.6331025 C38.5690852,16.2186704 35.4321767,17.0606094 37.2719243,18.7344044 C36.5728707,20.0300831 38.4580442,20.8140443 38.2763407,19.256205 C36.6839117,17.5118283 41.8574132,15.5607479 38.9602524,14.6331025 Z M40.451735,14.6961219 C39.4498423,15.7372022 41.0523659,16.8286981 41.726183,17.5723269 C42.7432177,18.278144 40.7066246,20.0678947 42.3722397,20.1359557 C44.0933754,18.4722438 42.6246057,15.4397507 40.451735,14.6961219 Z M32.3634069,15.941385 C30.8239748,16.4833518 32.348265,17.9403601 32.0731861,18.9234626 C30.7987382,21.3308033 34.7684543,20.1712465 33.829653,18.5755956 C32.9791798,17.7588643 34.0845426,15.76241 32.3634069,15.941385 Z M47.2681388,15.9388643 C46.2460568,16.8791136 45.1608833,20.5065097 47.9116719,20.3829917 C47.1495268,19.0116898 49.5343849,16.2186704 47.2681388,15.9388643 Z M34.6851735,16.1707756 C33.9936909,16.5917452 33.8069401,17.7513019 34.6624606,18.1168144 C35.9949527,18.5100554 36.3230284,15.4750416 34.6851735,16.1707756 Z M44.5022082,16.1909418 C43.7425868,16.6169529 44.4971609,18.7646537 45.49653,18.0008587 C46.4933754,17.4210803 45.5570978,15.6615789 44.5022082,16.1909418 Z M39.984858,17.2421053 C39.4977918,19.3973684 36.466877,26.513518 41.0094637,25.5858726 C41.7211356,22.9264543 40.8403785,19.2637673 39.984858,17.2421053 Z M35.6365931,18.4621607 C34.3041009,18.6083657 35.3589905,20.5644875 34.1249211,20.5392798 C32.6334385,20.5216343 33.829653,22.7449584 32.4643533,23.0827424 C30.9123028,24.154072 34.2082019,25.7925762 34.1148265,23.8742659 C33.9356467,21.6736288 37.8750789,19.8712742 35.6365931,18.4621607 Z M44.007571,18.4873684 C42.6750789,20.4762604 46.1022082,21.6761496 45.9129338,24.0633241 C45.9154574,25.7598061 49.0624606,24.0481994 47.540694,23.0903047 C46.1400631,22.8609141 47.2126183,20.783795 46.044164,20.5670083 C44.577918,20.7787535 45.70347,18.0941274 44.007571,18.4873684 Z M30.6119874,18.7218006 C29.6403785,20.0678947 31.9671924,20.728338 31.2378549,22.2206371 C33.6025237,23.7809972 31.7652997,18.6486981 30.6119874,18.7218006 Z M48.8,18.7192798 C48.6586751,19.7603601 46.1375394,23.097867 48.6712934,22.3819668 C48.007571,21.1291413 50.9400631,19.0520222 48.8,18.7192798 Z M36.5249211,20.7359003 C36.3634069,22.379446 33.1507886,24.0154294 36.911041,24.0179501 C36.2473186,22.6315235 39.4069401,20.3275346 36.5249211,20.7359003 Z M42.2536278,20.7232964 C41.8422713,21.7895845 43.3640379,22.2357618 43.0384858,23.2844044 C42.4454259,24.9380332 46.4731861,23.5768144 44.7141956,22.671856 C43.0031546,22.548338 44.6132492,19.8006925 42.2536278,20.7232964 Z M12.7116719,22.5155679 C12.0025237,22.6138781 11.1470032,23.2339889 12.1690852,23.6675623 C13.155836,24.8523269 14.0391167,22.311385 12.7116719,22.5155679 Z M14.7987382,22.5004432 C12.4063091,25.457313 19.215142,22.4096953 14.7987382,22.5004432 Z M17.4637224,22.5105263 C16.2094637,22.8886427 17.6883281,23.9927424 18.4403785,23.8490582 C17.2088328,25.4396676 19.6643533,26.3370637 20.6990536,27.1916066 C21.9835962,26.3269806 24.0630915,24.2296953 21.2214511,23.9322438 C22.059306,27.1815235 18.7735016,22.8256233 17.4637224,22.5105263 Z M62.1829653,22.5105263 C61.0195584,23.4280886 58.0113565,26.9697784 58.7760252,23.9246814 C55.9369085,24.2372576 58.0164038,26.3219391 59.3009464,27.1916066 C60.3356467,26.3370637 62.7911672,25.4396676 61.5596215,23.8490582 C62.6195584,24.098615 63.7905363,22.3819668 62.1829653,22.5105263 Z M64.007571,22.4550693 C62.9097792,23.4079224 65.037224,24.3910249 65.8422713,23.6751247 C65.9003155,22.7222715 64.9716088,22.008892 64.007571,22.4550693 Z M66.9072555,22.5332133 C65.6353312,25.2657341 70.29653,22.6138781 66.9072555,22.5332133 Z M30.8264984,22.9718283 C30.4227129,23.5969806 30.4504732,25.0943213 31.4574132,24.9481163 C31.9646688,24.3935457 31.5835962,22.9667867 30.8264984,22.9718283 Z M48.7798107,22.9869529 C48.3280757,23.5642105 47.8839117,25.255651 49.133123,24.885097 C49.4485804,24.3406094 49.6958991,22.896205 48.7798107,22.9869529 Z M9.14574132,23.221385 C8.00252366,25.2052355 12.1766562,23.1860942 9.14574132,23.221385 Z M69.9634069,23.2390305 C68.7318612,25.3363158 73.029653,23.0777008 69.9634069,23.2390305 Z M7.14952681,24.030554 C5.38801262,24.8573684 10.6523659,28.625928 9.35772871,25.2506094 C7.76529968,25.8404709 8.24479495,23.6625208 7.14952681,24.030554 Z M16.4542587,24.0280332 C14.8769716,23.7305817 15.3766562,26.6093075 16.6637224,25.7018283 C17.844795,25.7371191 17.4006309,23.7683934 16.4542587,24.0280332 Z M63.1545741,23.9801385 C62.0340694,24.8472853 62.8996845,25.9236565 64.0757098,25.9286981 C64.9766562,25.0287812 64.459306,23.7784765 63.1545741,23.9801385 Z M72.2826498,23.9221607 C72.229653,25.0489474 71.3716088,25.1044044 70.4555205,25.3262327 C69.718612,28.9561496 75.4094637,23.9171191 72.2826498,23.9221607 Z M10.9602524,24.2448199 C9.94069401,24.5145429 10.3343849,26.1832964 11.3135647,25.8707202 C13.2365931,26.2563989 12.2094637,23.5843767 10.9602524,24.2448199 Z M13.711041,24.2574238 C12.5274448,24.6103324 12.8277603,26.4378947 14.0769716,26.2110249 C15.3867508,26.0093629 14.955205,23.975097 13.711041,24.2574238 Z M37.1305994,24.2448199 C36.6006309,27.0504432 39.4649842,24.2296953 37.1305994,24.2448199 Z M42.2334385,24.2700277 C40.9488959,26.4530194 44.3381703,24.8724931 42.2334385,24.2700277 Z M65.9305994,24.2599446 C64.5905363,24.4439612 65.0574132,26.5210803 66.3217666,26.2110249 C67.5659306,25.9463435 67.0435331,24.098615 65.9305994,24.2599446 Z M68.2473186,24.2473407 C67.2429022,24.6531856 67.4750789,26.3849584 68.8883281,25.9110526 C70.288959,25.795097 69.4712934,23.6499169 68.2473186,24.2473407 Z M34.1400631,25.0539889 C32.0984227,29.4502216 36.7369085,33.4985873 40.0908517,35.4421053 C43.3085174,33.254072 47.9167192,29.4577839 45.8649842,25.0464266 C44.0681388,24.940554 44.0757098,27.2672299 42.622082,27.7486981 C40.7116719,29.0796676 38.1148265,28.6410526 36.4719243,27.1059003 C35.9293375,26.2009418 35.3943218,24.9960111 34.1400631,25.0539889 Z M5.73375394,25.5505817 C5.35520505,27.7486981 8.58044164,25.3741274 5.73375394,25.5505817 Z M23.0485804,25.502687 C21.6832808,26.2412742 23.2176656,28.041108 24.2119874,27.0958172 C24.4340694,26.4656233 23.8485804,25.2380055 23.0485804,25.502687 Z M31.6315457,25.5556233 C31.1899054,26.3824377 31.2984227,27.2521053 32.3129338,27.4865374 C33.0574132,26.8311357 32.8630915,25.1447368 31.6315457,25.5556233 Z M47.7880126,25.5001662 C46.6725552,25.8152632 47.4246057,28.1948753 48.3457413,27.1084211 C48.9337539,26.8160111 48.5880126,25.2203601 47.7880126,25.5001662 Z M56.3962145,25.5505817 C55.4725552,25.9942382 55.6088328,27.9201108 56.8100946,27.2470637 C58.0340694,27.0832133 57.4031546,25.0968421 56.3962145,25.5505817 Z M73.1684543,25.5379778 C72.3507886,28.1293352 76.1211356,25.0212188 73.1684543,25.5379778 Z M17.4384858,25.9866759 C16.1539432,26.8487812 17.4132492,28.4167036 18.8037855,27.6050139 C19.3665615,26.5790582 18.3343849,26.0093629 17.4384858,25.9866759 Z M62.3671924,26.019446 C60.8176656,25.7598061 60.4794953,28.4822438 62.4731861,27.6428255 C63.5028391,27.6604709 63.1520505,25.9841551 62.3671924,26.019446 Z M25.0574132,26.3068144 C24.3154574,26.7756787 25.8422713,27.8293629 26.4958991,27.9654848 C27.184858,27.2142936 25.7766562,26.1984211 25.0574132,26.3068144 Z M54.5867508,26.2866482 C54.0492114,26.5412465 52.9817035,27.1361496 53.4056782,27.8091967 C54.0164038,28.2856233 56.1539432,26.1984211 54.5867508,26.2866482 Z M12.4189274,26.536205 C10.3974763,29.4174515 14.5287066,28.2805817 15.8258675,27.862133 C16.0252366,25.7900554 13.3249211,28.1041274 12.4189274,26.536205 Z M67.2100946,26.5236011 C66.5312303,28.4040997 63.5533123,25.4900831 64.2321767,28.0511911 C65.3678233,27.8344044 66.3671924,28.310831 67.3867508,28.681385 C68.3735016,28.50241 68.5047319,26.2816066 67.2100946,26.5236011 Z M10.1880126,26.7630748 C9.30977918,27.2899169 8.17160883,28.9561496 9.42334385,29.6896953 C10.8340694,30.0325208 12.244795,26.5336842 10.1880126,26.7630748 Z M69.2567823,26.7681163 C68.0858044,27.4436842 69.244164,29.3519114 70.1981073,29.7476731 C72.10347,29.5233241 70.6548896,26.4807479 69.2567823,26.7681163 Z M5.05488959,27.0252355 C4.75457413,28.3889751 5.35520505,28.5780332 6.26624606,28.0915235 C6.71293375,29.1023546 7.63154574,29.5964266 8.30788644,28.4595568 C8.12365931,26.9244044 6.18801262,27.3529363 5.05488959,27.0252355 Z M74.3470032,27.1235457 C73.4309148,27.4865374 70.8466877,27.5344321 72.0933754,28.8477562 C73.0321767,30.1409141 73.3173502,27.6176177 74.2410095,28.2604155 C75.0788644,29.0141274 75.4246057,26.4328532 74.3470032,27.1235457 Z M21.8321767,27.5571191 C21.0473186,29.019169 17.4712934,27.2420222 19.1192429,29.5888643 C21.0927445,29.2132687 23.1545741,29.1300831 25.2996845,29.5712188 C26.6044164,26.8563435 23.0435331,28.5603878 21.8321767,27.5571191 Z M57.6504732,27.5798061 C56.6384858,28.7368421 53.5369085,26.8008864 54.6119874,29.3998061 C56.562776,29.5283657 58.7583596,28.8401939 60.7141956,29.6997784 C62.7583596,27.4487258 58.6952681,28.603241 57.6504732,27.5798061 Z M32.118612,27.7461773 C31.0082019,29.9821053 34.2712934,28.7217175 32.118612,27.7461773 Z M47.4801262,27.8293629 C46.0391167,30.670277 49.5293375,28.1368975 47.4801262,27.8293629 Z M26.7760252,28.2301662 C25.7968454,30.9727701 30.2006309,28.7141551 26.7760252,28.2301662 Z M52.8277603,28.3057895 C51.7324921,28.1192521 51.0839117,30.5543213 52.8252366,29.6670083 C53.7362776,29.6569252 53.615142,28.0335457 52.8277603,28.3057895 Z M16.4138801,28.7191967 C15.2227129,29.6014681 13.3198738,28.2982271 13.0321767,30.4711357 C12.7873817,33.2263435 14.5539432,35.411856 17.1129338,34.7791413 C17.2214511,33.1355956 15.0233438,34.2422161 14.7583596,32.860831 C14.6397476,31.8701662 14.3545741,30.9299169 13.6025237,30.2417452 C15.0687697,30.8517729 17.3577287,29.1502493 18.0921136,31.0736011 C20.222082,31.9029363 17.9104101,27.8344044 16.4138801,28.7191967 Z M62.6927445,28.5956787 C62.0794953,29.1477285 59.7072555,31.3256787 61.8018927,31.2273684 C62.4378549,29.0695845 64.7899054,30.9147922 66.3470032,30.2367036 C65.0700315,31.255097 65.7388013,34.1060942 63.5104101,33.7607479 C61.5646688,35.7773684 67.4347003,34.7917452 66.5564669,32.6440443 C68.3533123,29.6846537 64.9817035,28.7595291 62.6927445,28.5956787 Z M12.0984227,28.9662327 C11.2605678,30.8038781 14.4605678,29.4703878 12.0984227,28.9662327 Z M67.7198738,29.0494183 C65.4435331,29.9921884 69.259306,30.2064543 67.7198738,29.0494183 Z M5.46876972,29.1956233 C4.41892744,31.6962327 8.80252366,30.4736565 5.46876972,29.1956233 Z M74.4201893,29.2309141 C71.1041009,30.6425485 75.873817,31.55759 74.4201893,29.2309141 Z M22.7634069,29.8535457 C21.9356467,31.2374515 20.1160883,29.0670637 19.7451104,30.839169 C19.6113565,32.1096399 21.4687697,30.8769806 22.1148265,31.6281717 C23.2227129,33.075097 24.4239748,29.367036 22.7634069,29.8535457 Z M28.5753943,29.8157341 C27.9621451,31.625651 31.2529968,30.4585319 28.5753943,29.8157341 Z M32.7747634,29.8686704 C32.7899054,33.1860111 35.2479495,30.5896122 32.7747634,29.8686704 Z M47.0460568,29.7905263 C44.5728707,31.3055125 47.7299685,32.6717729 47.0460568,29.7905263 Z M51.0485804,29.7955679 C48.5526814,31.6155679 53.0876972,30.4988643 51.0485804,29.7955679 Z M57.0624606,29.8459834 C55.659306,29.6165928 56.8277603,33.0221607 57.8750789,31.6357341 C58.4958991,30.894626 60.3861199,32.097036 60.2548896,30.8416898 C59.8157729,29.1452078 57.9835962,31.141662 57.0624606,29.8459834 Z M7.36908517,30.0501662 C6.83154574,30.2064543 6.8340694,31.9004155 7.63911672,31.7189197 C9.66309148,32.7297507 8.81766562,29.1729363 7.36908517,30.0501662 Z M10.4782334,30.0577285 C8.97917981,30.7761496 10.5640379,31.6760665 11.1772871,32.2508033 C10.8416404,33.6624377 12.4138801,34.3178393 12.9160883,33.05241 C11.6063091,32.2785319 12.3179811,29.6544044 10.4782334,30.0577285 Z M68.5123028,30.0829363 C68.3608833,31.2424931 67.5533123,32.344072 67.1873817,33.2112188 C68.673817,35.0110526 68.3659306,31.8222715 69.6858044,31.5248199 C70.9299685,31.0307479 69.4662461,29.3519114 68.5123028,30.0829363 Z M71.770347,29.9972299 C71.2378549,30.2745152 70.8870662,31.5777562 71.4347003,31.7416066 C73.2895899,32.7902493 73.4940063,29.3292244 71.770347,29.9972299 Z M25.3299685,30.3299723 C25.0649842,32.4927978 27.1798107,35.7395568 24.7041009,37.7662604 C23.5835962,39.939169 20.5577287,38.5552632 19.3968454,40.3349307 C20.7949527,42.8582271 24.5955836,43.4581717 27.0056782,42.084349 C28.4315457,41.3356787 30.6271293,41.8297507 31.4271293,40.1534349 C30.962776,36.5487258 30.0744479,30.5039058 25.3299685,30.3299723 Z M53.4839117,30.423241 C49.6454259,31.9004155 49.1987382,36.5083934 48.5123028,39.9769806 C49.1760252,41.8221884 51.5280757,41.3860942 52.9917981,42.0868698 C55.4018927,43.4304432 59.215142,42.8758726 60.5955836,40.3349307 C59.7123028,38.6510526 57.3299685,39.7425485 56.0807571,38.5149307 C54.1375394,37.1159003 53.4107256,34.1968421 54.7230284,32.1373684 C55.3917981,31.2450139 54.8794953,29.513241 53.4839117,30.423241 Z M15.3817035,31.2500554 C17.1709779,32.8129363 21.822082,39.208144 23.2302839,34.5396676 C20.9589905,32.8532687 18.1451104,31.8373961 15.3817035,31.2500554 Z M64.3583596,31.378615 C61.6580442,31.8449584 58.970347,32.9314127 56.7697161,34.5396676 C58.051735,39.3215789 63.2656151,32.5079224 64.3583596,31.378615 Z M29.8347003,31.4618006 C30.051735,32.074349 30.1425868,33.3649861 30.9905363,33.2389474 C31.8435331,32.5180055 30.6523659,31.4441551 29.8347003,31.4618006 Z M49.592429,31.5954017 C48.784858,31.7668144 48.2321767,33.3070083 49.4006309,33.2717175 C49.7211356,32.8406648 50.7078864,31.1038504 49.592429,31.5954017 Z M9.36529968,32.0869529 C8.08328076,31.9634349 8.24479495,34.4716066 9.50662461,33.96241 C10.8189274,34.0355125 10.6574132,31.8575623 9.36529968,32.0869529 Z M70.4403785,32.0945152 C69.2264984,32.0239335 69.3148265,33.9825762 70.4908517,33.9649307 C71.8611987,34.4842105 71.8157729,31.7693352 70.4403785,32.0945152 Z M6.32933754,32.3314681 C6.00378549,35.7067867 9.47886435,31.9104986 6.32933754,32.3314681 Z M34.0643533,32.3289474 C33.5116719,33.9573684 36.333123,33.2238227 34.0643533,32.3289474 Z M45.7463722,32.3591967 C43.5381703,33.8313296 47.0233438,33.3145706 45.7463722,32.3591967 Z M73.044795,32.3289474 C70.2460568,33.7052909 75.7324921,34.2069252 73.044795,32.3289474 Z M22.7684543,32.5734626 C22.6271293,35.0765928 25.3451104,32.3919668 22.7684543,32.5734626 Z M56.3785489,32.5280886 C54.9022082,34.9555956 59.0182965,32.6188366 56.3785489,32.5280886 Z M31.5861199,33.8010803 C30.8012618,35.6866205 33.7640379,34.7337673 31.5861199,33.8010803 Z M48.0201893,33.816205 C46.2788644,36.0244044 50.0063091,34.3455679 48.0201893,33.816205 Z M7.93438486,34.3254017 C6.63722397,34.7690582 7.72996845,36.6319114 8.75709779,36.2109418 C9.15583596,35.4093352 9.27697161,33.8514958 7.93438486,34.3254017 Z M9.92302839,34.2951524 C8.83785489,34.7362881 9.44858044,36.6092244 10.5690852,36.2890859 C11.6921136,36.0445706 11.1646688,33.8817452 9.92302839,34.2951524 Z M69.473817,34.3455679 C68.3835962,34.4942936 68.681388,36.647036 69.844795,36.3042105 C71.0637224,36.1151524 70.7962145,33.8414127 69.473817,34.3455679 Z M71.2504732,34.3380055 C70.5640379,34.7287258 71.1293375,37.0806094 72.1337539,36.0244044 C73.2845426,35.4295014 72.348265,33.8489751 71.2504732,34.3380055 Z M12.4416404,34.5749584 C11.1242902,35.1925485 12.4466877,36.9444875 13.5293375,36.4932687 C14.5741325,35.8630748 13.0271293,34.5068975 12.4416404,34.5749584 Z M67.3362776,34.5699169 C66.7078864,34.9203047 65.5141956,35.8630748 66.4630915,36.500831 C67.6895899,37.0453186 68.9463722,34.8144321 67.3362776,34.5699169 Z M17.4763407,35.1219668 C15.6214511,36.1806925 18.3470032,36.9091967 17.7892744,38.2704155 C17.8927445,40.2013296 20.7116719,37.3402493 19.0990536,36.894072 C18.2258675,36.6798061 18.2712934,35.1471745 17.4763407,35.1219668 Z M35.6416404,35.0312188 C35.3337539,37.7965097 37.9179811,35.3085042 35.6416404,35.0312188 Z M43.4902208,35.0841551 C42.7205047,38.5603047 45.8195584,34.4968144 43.4902208,35.0841551 Z M62.3621451,35.0362604 C61.7438486,35.5656233 61.7009464,36.5714127 60.9009464,36.894072 C59.3135647,37.2923546 61.8473186,40.1685596 62.2006309,38.4191413 C61.6302839,36.962133 64.4694006,36.0420499 62.3621451,35.0362604 Z M14.9350158,35.3488366 C13.3123028,36.1428809 15.6744479,37.01759 15.548265,37.9981717 C14.7129338,39.6543213 17.5041009,39.3392244 16.7570978,40.8416066 C17.0498423,42.7750416 20.2422713,40.4609695 18.2914826,39.7173407 C15.9066246,39.0417729 17.266877,35.4042936 14.9350158,35.3488366 Z M64.673817,35.3715235 C62.970347,36.1176731 63.6921136,39.3820776 61.2315457,40.0299169 C60.451735,41.9028532 64.2018927,42.084349 63.1596215,39.9114404 C65.0927445,39.5736565 63.7930599,37.4360388 65.3097792,36.6974515 C66.0037855,36.2563158 65.4839117,35.0841551 64.673817,35.3715235 Z M37.9760252,36.0924654 C36.9312303,36.7529086 37.6176656,38.1242105 37.8649842,39.051856 C38.7053628,38.6510526 39.7804416,35.7672853 37.9760252,36.0924654 Z M41.2416404,36.0975069 C40.69653,37.0251524 41.4182965,38.0662327 41.7413249,38.9585873 C42.9097792,39.0342105 43.0536278,35.4370637 41.2416404,36.0975069 Z M9.11545741,36.5739335 C8.00504732,37.1159003 9.26435331,38.2956233 10.0618297,38.2779778 C10.8063091,37.5746814 9.83470032,36.7201385 9.11545741,36.5739335 Z M11.088959,36.568892 C9.20378549,39.1451247 13.4687697,38.3485596 13.148265,39.8005263 C9.79179811,39.6820499 17.3753943,43.1077839 15.8384858,40.1761219 C15.2757098,38.9207756 13.0018927,41.2298061 14.1148265,39.545928 C15.8788644,37.4940166 12.3886435,37.1511911 11.088959,36.568892 Z M20.4820189,36.5613296 C19.5432177,38.5804709 22.962776,37.2570637 20.4820189,36.5613296 Z M33.1078864,36.6142659 C32.0378549,38.7317175 35.5179811,37.2016066 33.1078864,36.6142659 Z M46.4858044,36.5083934 C44.6258675,38.6787812 48.7217666,37.4133518 46.4858044,36.5083934 Z M59.1217666,36.5789751 C57.1003155,38.5527424 61.2946372,37.264626 59.1217666,36.5789751 Z M68.7444795,36.6445152 C67.7350158,37.557036 65.5545741,36.9344044 65.355205,38.5729086 C65.2416404,39.2509972 67.1066246,40.3752632 65.7488959,40.208892 C64.6309148,38.489723 62.7810726,41.8448753 64.9640379,41.4743213 C65.6731861,40.3601385 68.0353312,41.3054294 67.8082019,39.7097784 C66.4656151,40.1257064 66.6902208,39.4047645 67.4321767,38.6056787 C68.7167192,39.9668975 70.2258675,36.9848199 68.7444795,36.6445152 Z M70.7129338,36.6344321 C70.0365931,36.8108864 69.244164,37.6503047 69.9381703,38.2779778 C70.8492114,38.4014958 72.0454259,36.7428255 70.7129338,36.6344321 Z M39.9041009,36.8638227 C39.873817,38.2048753 37.6227129,39.8963158 39.326183,40.8163989 C39.6845426,40.1004986 40.3154574,40.1004986 40.673817,40.8163989 C42.3015773,39.9593352 40.2170347,37.849446 39.9041009,36.8638227 Z M33.1104101,38.8930471 C31.3337539,40.2340997 34.5716088,40.9121884 35.6037855,40.5920499 C34.9526814,39.8585042 34.1652997,38.8779224 33.1104101,38.8930471 Z M46.511041,38.8804432 C45.6555205,39.2232687 44.9615142,39.8786704 44.3962145,40.5920499 C45.6126183,41.1819114 49.0094637,39.6316343 46.511041,38.8804432 Z M32.3835962,41.0382271 C32.9059937,42.0868698 33.8927445,42.870831 34.3495268,43.9824931 C35.9722397,44.5773961 35.0031546,42.6288366 36.3255521,42.3263435 C35.888959,40.7180886 33.6050473,41.7263989 32.3835962,41.0382271 Z M46.7886435,41.2045983 C45.7640379,41.6860665 43.9116719,40.8441274 43.6744479,42.3263435 C45.0018927,42.646482 44.0201893,44.567313 45.6656151,43.9976177 C45.6504732,42.8304986 48.8403785,40.8239612 46.7886435,41.2045983 Z M15.9671924,41.8423546 C15.6391167,42.8229363 18.0264984,43.7682271 17.8902208,42.4145706 C17.4006309,41.9154571 16.6233438,41.8927701 15.9671924,41.8423546 Z M31.3085174,41.8625208 C29.7917981,43.2287812 32.4340694,44.219446 33.607571,44.0354294 C33.0170347,43.2161773 32.2876972,42.2179501 31.3085174,41.8625208 Z M48.5097792,41.9078947 C47.6719243,42.3893629 46.9198738,43.2262604 46.392429,44.0354294 C47.6416404,44.3807756 50.384858,42.8330194 48.5097792,41.9078947 Z M63.2126183,41.9255402 C62.6826498,41.9860388 61.7312303,42.3011357 62.2107256,42.9918283 C63.192429,43.7203324 65.0801262,41.421385 63.2126183,41.9255402 Z M19.0687697,42.1902216 C17.7135647,42.3843213 19.192429,44.1060111 19.9596215,43.3976731 C20.9615142,43.1783657 19.9066246,41.3961773 19.0687697,42.1902216 Z M59.9419558,42.1776177 C58.6649842,45.1269252 63.9141956,41.9129363 59.9419558,42.1776177 Z M20.7343849,43.0951801 C21.0599369,45.2731302 23.3488959,42.9010803 20.7343849,43.0951801 Z M58.6574132,43.1884488 C56.0984227,44.3328809 60.8504732,43.8312465 58.6574132,43.1884488 Z M23.8182965,43.4228809 C21.4485804,43.4153186 24.3280757,45.376482 25.0044164,44.0707202 C24.8580442,43.4732964 24.3987382,43.2287812 23.8182965,43.4228809 Z M29.0826498,43.38759 C27.9394322,45.3714404 32.1135647,43.3522992 29.0826498,43.38759 Z M50.0264984,43.4052355 C48.7949527,45.5025208 53.0927445,43.2439058 50.0264984,43.4052355 Z M55.3817035,43.3926316 C54.2864353,44.7992244 56.7192429,44.713518 57.3249211,43.8211634 C56.7495268,43.4581717 56.0504732,43.3548199 55.3817035,43.3926316 Z M26.0542587,43.6447091 C24.8782334,45.3689197 28.688959,43.4859003 26.0542587,43.6447091 Z" ></path>
            <path d="M38.0391167,46.3898338 C37.0271293,49.8911911 35.311041,53.2135734 33.4157729,56.3242105 C33.1659306,56.7401385 33.7413249,58.0106094 34.0012618,56.2536288 C35.7148265,53.2387812 37.7362776,50.4230748 39.9141956,47.7283657 C42.5665615,50.2415789 44.6031546,54.3403601 46.5892744,56.8636565 C45.1835962,53.5412742 43.0233438,50.1810803 41.948265,46.5688089 C51.8157729,45.028615 64.1312303,44.4841274 71.6189274,52.734626 C74.8769716,56.2586704 76.4921136,61.564903 75.6643533,66.2132133 C67.873817,72.5025485 56.2044164,69.2885596 50.2940063,61.9404986 C49.3350158,61.0330194 48.8858044,59.6188643 47.6845426,58.9861496 C50.4302839,65.0687812 51.6365931,72.4092798 48.7091483,78.653241 C46.7608833,82.0991413 43.7728707,85.4870637 39.9041009,86.7146814 C36.1993691,85.3257341 33.3476341,82.1621607 31.3514196,78.8448199 C28.4239748,72.5176731 29.4662461,65.1191967 32.3003155,58.9584211 C27.6769716,64.9049307 20.7470032,70.4884488 12.6763407,69.5683657 C9.74637224,68.7718006 6.33690852,68.3861219 4.22712934,66.0115512 C2.46056782,54.7613296 13.5570978,45.8579501 24.1059937,45.7571191 C28.7570978,45.5680609 33.4107256,45.9587812 38.0391167,46.3898338 Z M57.3249211,47.1788366 C56.8176656,46.7755125 56.2119874,46.4931856 55.5634069,46.4301662 C54.066877,47.5014958 56.5602524,48.0409418 57.3249211,47.1788366 Z M31.3085174,49.1374792 C32.126183,48.8828809 34.7255521,46.4856233 32.562776,47.0401939 C31.5457413,47.1435457 30.0416404,48.2047922 31.3085174,49.1374792 Z M32.4492114,49.8836288 C33.6731861,49.3618283 35.9015773,50.2340166 36.3255521,48.6736565 C34.9981073,48.353518 35.9798107,46.432687 34.3343849,47.0023823 C34.0466877,48.151856 32.7116719,49.1778116 32.4492114,49.8836288 Z M44.2624606,48.2577285 C42.3949527,49.8432964 47.0283912,49.7500277 47.5608833,49.7777562 C46.4378549,49.0366482 46.2788644,46.6519945 44.688959,47.0124654 C44.237224,47.1788366 44.8883281,48.083795 44.2624606,48.2577285 Z M48.6914826,49.1374792 C50.2082019,47.7686981 47.5659306,46.780554 46.392429,46.9645706 C46.9804416,47.7838227 47.7123028,48.7820499 48.6914826,49.1374792 Z M64.0328076,49.1576454 C64.2069401,48.3736842 63.0839117,47.7762604 62.4025237,47.9476731 C61.3880126,48.7770083 63.3438486,49.2383102 64.0328076,49.1576454 Z M19.4044164,50.6650693 C20.459306,52.4850693 23.2933754,51.1389751 24.4567823,52.9841828 C27.0839117,55.0310526 25.266877,58.3559557 25.2921136,60.6977562 C30.0794953,60.4129086 30.977918,54.5470637 31.422082,50.8415235 C29.8649842,48.9206925 26.7583596,49.016482 24.5476341,48.2199169 C22.6599369,48.4266205 20.2826498,48.7064266 19.4044164,50.6650693 Z M48.5728707,50.8465651 C49.037224,54.4512742 49.9255521,60.4960942 54.6700315,60.6700277 C54.9350158,58.5072022 52.8201893,55.2604432 55.2958991,53.2337396 C56.4164038,51.060831 59.4397476,52.4422161 60.6031546,50.6650693 C59.5533123,48.5299723 56.7772871,48.1493352 54.6473186,48.252687 C52.784858,49.510554 49.8574132,48.8753186 48.5728707,50.8465651 Z M12.1917981,51.2902216 C13.5343849,50.8742936 13.3097792,51.5952355 12.5678233,52.3943213 C11.4498423,51.2675346 9.96088328,53.3270083 10.9678233,54.2899446 C12.5451104,54.128615 16.3507886,52.9186427 13.6227129,50.8919391 C14.644795,51.7994183 17.4586751,50.3298061 15.215142,49.4828255 C14.4201893,50.5264266 12.0227129,49.7197784 12.1917981,51.2902216 Z M15.3766562,53.6799169 C13.4384858,54.4487535 14.9829653,56.6771191 16.3280757,55.1192798 C15.2479495,52.6842105 21.3249211,50.2314958 17.2895899,49.4576177 C16.8201893,51.0280609 15.4094637,51.7968975 15.3766562,53.6799169 Z M61.8750789,51.375928 C64.015142,51.9783934 63.0435331,57.0199446 65.6,55.1520499 C64.1817035,53.274072 64.1059937,50.128144 61.955836,49.4702216 C61.0246057,49.8180886 60.7066246,51.1112465 61.8750789,51.375928 Z M65.7665615,51.600277 C63.8309148,53.6194183 70.3242902,55.6763712 69.2189274,52.9085596 C68.6561514,51.2776177 66.9728707,53.1354294 66.6649842,51.1818283 C69.6630915,51.1440166 65.5242902,49.8306925 64.4113565,49.455097 C62.2031546,52.0792244 67.6290221,50.1104986 65.7665615,51.600277 Z M32.562776,51.4288643 C32.7974763,53.4732133 36.6082019,50.2365374 34.9299685,50.3298061 C34.1451104,50.6600277 32.5880126,50.2340166 32.562776,51.4288643 Z M39.9041009,54.1361773 C40.2170347,53.150554 42.3015773,51.0406648 40.673817,50.1836011 C40.2271293,51.1490582 39.6694006,50.5390305 39.1520505,50.2163712 C37.7943218,51.3683657 39.873817,52.7724377 39.9041009,54.1361773 Z M47.422082,51.6204432 C47.5810726,50.1583934 45.6252366,50.6474238 44.7217666,50.2693075 C44.1690852,50.813795 46.7861199,53.0472022 47.422082,51.6204432 Z M17.6378549,55.9637396 C18.4302839,54.4840443 21.014511,53.0623269 18.2485804,51.993518 C18.1930599,53.319446 15.8182965,54.9453463 17.6378549,55.9637396 Z M38.7583596,54.9024931 C39.2050473,53.9975346 38.7810726,52.308615 37.8750789,51.9582271 C37.2971609,52.8959557 36.9917981,55.3285042 38.7583596,54.9024931 Z M41.2492114,54.9050139 C43.0712934,55.5755402 42.8820189,51.9078116 41.7615142,52.0640997 C41.5066246,52.9791413 40.6309148,53.9798892 41.2492114,54.9050139 Z M63.1444795,54.6151247 C61.6328076,54.2622161 62.8138801,52.0111634 61.4637224,52.0540166 C58.6574132,52.9967867 63.215142,57.5946814 63.1444795,54.6151247 Z M8.97917981,54.3050693 C9.829653,54.7940997 11.0788644,52.6615235 9.69589905,52.7724377 C9.13817035,52.9967867 8.14384858,53.8210803 8.97917981,54.3050693 Z M70.8845426,54.4260665 C71.9949527,53.8840997 70.733123,52.7043767 69.9381703,52.7220222 C69.1936909,53.4253186 70.162776,54.2798615 70.8845426,54.4260665 Z M12.1488959,56.1704432 C13.2542587,57.3854571 14.9022082,53.8740166 12.7495268,54.5042105 C12.1741325,54.7915789 11.4473186,55.6158726 12.1488959,56.1704432 Z M15.4018927,59.7776731 C18.1501577,59.1373961 20.9640379,58.1517729 23.2302839,56.4603324 C22.7432177,55.8881163 22.6195584,54.4815235 21.7842271,54.5596676 C19.3388013,55.8276177 17.0801262,57.5719945 15.4018927,59.7776731 Z M56.8757098,56.6115789 C59.2580442,58.0559834 61.7867508,59.3768698 64.6006309,59.7247368 C62.7533123,57.5921607 60.5324921,55.4797507 57.8574132,54.4941274 C57.5369085,55.1671745 56.815142,55.9234072 56.8757098,56.6115789 Z M67.8637224,56.1780055 C68.6940063,55.4016066 67.3463722,54.1311357 66.4731861,54.5042105 C65.4334385,55.0537396 67.1192429,57.1585873 67.8637224,56.1780055 Z M8.13375394,56.7149307 C9.48895899,57.1787535 9.23659306,54.4663989 8.17665615,54.7386427 C7.25804416,55.0991136 6.94511041,56.5157895 8.13375394,56.7149307 Z M10.3268139,56.71241 C11.6946372,56.6846814 11.3135647,54.1462604 9.94826498,54.7285596 C9.05993691,55.1822992 9.18359621,56.8434903 10.3268139,56.71241 Z M70.0769716,56.7048476 C71.2656151,56.2032133 70.4050473,54.1815512 69.2264984,54.7663712 C68.3835962,55.3032964 68.9160883,57.0577562 70.0769716,56.7048476 Z M71.8662461,56.7149307 C73.3804416,56.5183102 72.4037855,54.3227147 71.2429022,54.7890582 C70.9526814,55.4948753 70.6069401,56.9972576 71.8662461,56.7149307 Z M34.1350158,65.9535734 C35.9318612,66.059446 35.9242902,63.7327701 37.377918,63.2513019 C39.2883281,61.9203324 41.8851735,62.3589474 43.5280757,63.8940997 C44.0706625,64.7990582 44.6056782,66.0039889 45.8599369,65.9460111 C47.9015773,61.5497784 43.2630915,57.5014127 39.9091483,55.5578947 C36.6914826,57.745928 32.0832808,61.5422161 34.1350158,65.9535734 Z M15.777918,61.9657064 C17.488959,63.9596399 20.3608833,59.1424377 18.0870662,59.9213573 C17.4763407,61.9531025 15.1015773,60.0121053 13.6529968,60.7632964 C14.9728707,59.913795 14.1602524,57.1434626 16.1388013,57.2821053 C17.3324921,57.4938504 17.3223975,55.3436288 16.0832808,56.0872576 C12.9059937,55.6234349 11.4170347,62.6614404 15.777918,61.9657064 Z M63.8586751,57.2795845 C65.9129338,57.1711911 65.0271293,59.8759834 66.3974763,60.7582548 C64.9287066,60.1457064 62.6422713,61.8472299 61.9078864,59.9263989 C59.6138801,59.1978947 62.622082,64.0831579 64.3760252,61.8850416 C66.5211356,62.6337119 67.755205,60.0297507 66.5892744,58.3584765 C66.6044164,56.0242382 64.6662461,56.588892 63.207571,56.0242382 C62.5287066,56.2712742 63.1899054,57.4812465 63.8586751,57.2795845 Z M9.75899054,58.8550693 C11.1899054,58.6181163 10.1047319,56.4754571 8.8807571,57.0350693 C8.0807571,57.5568698 8.60567823,59.3365374 9.75899054,58.8550693 Z M70.6347003,58.9130471 C71.9141956,59.0365651 71.755205,56.5283934 70.4933754,57.03759 C69.1810726,56.9644875 69.3425868,59.1399169 70.6347003,58.9130471 Z M11.4876972,60.9170637 C11.3211356,59.6087812 14.1350158,57.3325208 11.6946372,57.2795845 C11.777918,58.7996122 7.88138801,60.9599169 11.4876972,60.9170637 Z M68.5123028,60.9170637 C71.9646688,61.2372022 68.3305994,57.8039058 67.7324921,57.2644598 C66.3167192,58.1820222 68.7873817,59.5104709 68.5123028,60.9170637 Z M29.8347003,59.5381994 C30.8365931,59.7070914 32.0555205,57.8391967 30.5993691,57.7282825 C30.177918,58.2450416 29.9735016,58.8954017 29.8347003,59.5381994 Z M50.1652997,59.5381994 C49.9457413,58.925651 49.8574132,57.6350139 49.0094637,57.7610526 C48.1564669,58.4819945 49.3476341,59.5558449 50.1652997,59.5381994 Z M19.8157729,60.3448476 C20.2624606,61.8396676 21.8599369,59.8154848 22.6170347,61.048144 C24.1867508,61.8522715 23.5507886,58.8777562 22.5867508,59.0592521 C21.9760252,60.2515789 19.3716088,58.7870083 19.8157729,60.3448476 Z M57.2365931,61.1464543 C58.1097792,59.8885873 60.673817,61.9757895 60.1690852,59.5911357 C58.8946372,60.2339335 57.9179811,59.026482 56.8832808,59.1096676 C56.673817,59.8659003 55.8006309,61.3834072 57.2365931,61.1464543 Z M32.8958991,60.1482271 C31.9772871,62.7647922 35.1394322,59.4398892 33.6227129,59.3037673 C33.2214511,59.4020776 32.9539432,59.7499446 32.8958991,60.1482271 Z M47.2252366,61.1313296 C47.2479495,60.5011357 47.0914826,59.2457895 46.1829653,59.3062881 C45.5419558,59.7398615 46.5791798,61.2019114 47.2252366,61.1313296 Z M72.8429022,60.8968975 C73.2895899,59.497867 72.6031546,58.8752355 71.2328076,59.250831 C70.8895899,60.2818283 71.7198738,61.5044044 72.8429022,60.8968975 Z M74.2763407,61.8673961 C75.1419558,61.3077839 74.6094637,59.8054017 73.5419558,60.3246814 C72.5173502,60.3801385 74.1981073,61.4439058 74.2763407,61.8673961 Z M10.1880126,64.2369252 C12.244795,64.4663158 10.8340694,60.9674792 9.42334385,61.3103047 C8.17160883,62.0438504 9.30977918,63.7100831 10.1880126,64.2369252 Z M20.7041009,62.6412742 C21.5495268,63.5437119 22.5463722,63.6319391 23.5028391,62.8227701 C24.6586751,63.7327701 26.4,62.8504986 25.2996845,61.4287812 C23.215142,61.7060665 21.2290221,62.0388089 19.2858044,61.3002216 C17.7589905,62.250554 19.3817035,63.7932687 20.7041009,62.6412742 Z M56.4971609,62.8227701 C57.4460568,63.621856 58.4883281,63.5790028 59.2832808,62.6009418 C60.5981073,63.9898892 62.3772871,61.9102493 60.5223975,61.2523269 C58.7255521,62.1345983 56.8353312,61.7211911 54.8769716,61.3531579 C53.4662461,62.5404432 55.2529968,63.8915789 56.4971609,62.8227701 Z M68.6990536,63.7378116 C70.0845426,65.7594737 72.5350158,61.0960388 70.0113565,61.3002216 C69.1886435,61.8220222 68.8302839,62.812687 68.6990536,63.7378116 Z M5.05236593,63.9621607 C6.58422713,63.9873684 9.81198738,62.6412742 7.14952681,61.8295845 C6.6170347,63.621856 4.57539432,61.6707756 5.05236593,63.9621607 Z M74.7835962,62.5706925 C73.6580442,63.5159834 73.3829653,61.8976454 72.5400631,61.8270637 C69.5570978,63.3470914 76.3911672,65.3284211 74.7835962,62.5706925 Z M13.592429,63.7579778 C14.4227129,63.6949584 16.4971609,64.9225762 15.7678233,62.9488089 C14.5488959,63.2513019 13.5369085,62.5328809 12.4239748,62.3085319 C10.9804416,63.3344875 12.6056782,65.598144 13.592429,63.7579778 Z M64.1993691,64.1134072 C65.1432177,64.4461496 66.29653,62.9437673 66.8895899,64.2898615 C68.3861199,65.3662327 68.5451104,62.1623269 67.2100946,62.3614681 C66.2410095,63.3319668 63.5230284,62.1472022 64.1993691,64.1134072 Z M24.7192429,64.5419391 C25.5167192,65.3107756 27.4574132,63.4327978 26.3217666,63.0950139 C25.6025237,63.3244044 25.0397476,63.868892 24.7192429,64.5419391 Z M55.2807571,64.5419391 C54.9425868,63.8033518 54.2864353,63.2513019 53.5041009,63.0345152 C52.7899054,63.8487258 54.50347,65.149446 55.2807571,64.5419391 Z M18.0164038,64.8847645 C19.4321767,64.9452632 19.1318612,62.4018006 17.5268139,63.3571745 C16.3129338,63.3697784 17.029653,65.5250416 18.0164038,64.8847645 Z M63.0586751,64.4032964 C63.4826498,63.4050693 62.1501577,63.0773684 61.4082019,63.3798615 C60.0807571,64.171385 62.6044164,65.8779501 63.0586751,64.4032964 Z M22.7684543,65.2301108 C23.7198738,66.4854571 25.0952681,63.5059003 23.540694,63.6243767 C22.7432177,63.7680609 22.1047319,64.5142105 22.7684543,65.2301108 Z M31.8233438,65.4947922 C33.0574132,65.7645152 32.9564669,63.654626 32.1438486,63.599169 C31.1444795,63.7604986 31.207571,65.0460942 31.8233438,65.4947922 Z M48.3684543,65.4443767 C48.8100946,64.6175623 48.7015773,63.7478947 47.6870662,63.5134626 C46.9425868,64.1688643 47.1369085,65.8552632 48.3684543,65.4443767 Z M57.3299685,65.0612188 C57.9356467,64.2898615 56.9817035,63.6722715 56.2725552,63.5966482 C54.8088328,63.9772853 56.6410095,66.5711634 57.3299685,65.0612188 Z M18.4403785,67.1509418 C17.5470032,66.9770083 16.1741325,68.3079778 17.6403785,68.5474515 C19.1041009,67.7609695 20.2321767,65.5477285 21.5192429,65.8628255 C20.3962145,67.587036 22.8416404,67.138338 22.9476341,65.7821607 C21.3829653,65.9460111 22.2132492,63.6243767 20.5173502,63.8336011 C19.5936909,64.8645983 17.2012618,65.5578116 18.4403785,67.1509418 Z M57.0523659,65.7846814 C57.2744479,67.3047091 59.6643533,67.4433518 58.3873817,65.6939335 C60.0100946,65.9964266 60.9287066,67.6677008 62.3596215,68.5449307 C63.8258675,68.3079778 62.4529968,66.9770083 61.5596215,67.1509418 C62.7835962,65.6006648 60.2523659,64.3780886 59.1217666,63.8512465 C57.7312303,64.0604709 58.5817035,65.9384488 57.0523659,65.7846814 Z M7.52807571,67.0526316 C8.01009464,66.1552355 11.3968454,64.6200831 8.24479495,64.3377562 C8.02776025,65.3990028 5.36782334,66.7047645 7.52807571,67.0526316 Z M73.3198738,66.2157341 C72.1690852,65.8149307 72.2170347,63.7604986 70.7356467,64.4108587 C69.6176656,65.396482 73.2088328,68.1315235 73.3198738,66.2157341 Z M14.4176656,66.5812465 C15.5280757,66.0544044 14.5413249,64.3352355 13.4839117,64.8267867 C12.2422713,65.3889197 13.377918,67.3223546 14.4176656,66.5812465 Z M66.5892744,66.5232687 C67.659306,65.9939058 66.7507886,64.3579224 65.726183,64.834349 C64.3507886,65.3082548 65.5470032,67.4736011 66.5892744,66.5232687 Z M12.214511,66.3619391 C12.8252366,65.4065651 11.7728707,65.0334903 10.9123028,65.0612188 C9.36025237,65.8250139 11.3892744,67.7080332 12.214511,66.3619391 Z M16.9867508,66.8837396 C17.9634069,65.9460111 16.9564669,65.1242382 15.9242902,65.0713019 C14.8719243,65.991385 15.785489,67.4685596 16.9867508,66.8837396 Z M63.1545741,67.0198615 C64.5501577,67.3778116 65.0195584,65.4620222 63.888959,65.1191967 C62.7280757,65.1292798 62.1501577,66.2560665 63.1545741,67.0198615 Z M68.8454259,66.8030748 C69.8801262,66.7198892 69.8927445,65.1015512 68.8883281,65.0889474 C66.9804416,64.5217729 67.4902208,67.1635457 68.8454259,66.8030748 Z M39.9091483,73.9419114 C41.2870662,71.6026316 41.0675079,68.744072 41.2921136,66.1476731 C41.2870662,65.0183657 39.9192429,65.3410249 39.1722397,65.3838781 C37.9608833,67.7534072 39.3059937,71.3404709 39.9091483,73.9419114 Z M30.8264984,68.0281717 C31.7375394,68.1239612 32.1892744,65.620831 30.866877,66.114903 C30.5690852,66.7098061 30.4454259,67.4357895 30.8264984,68.0281717 Z M49.1735016,68.0281717 C49.5772871,67.4030194 49.5495268,65.9056787 48.5425868,66.0518837 C48.0353312,66.6064543 48.4164038,68.0332133 49.1735016,68.0281717 Z M33.1129338,68.3306648 C33.4182965,69.4045152 33.2542587,70.7254017 34.7432177,70.6044044 C34.4681388,71.5723823 35.5230284,73.3797784 36.3886435,72.0866205 C37.4712934,70.4481163 34.6246057,70.7178393 35.1671924,69.16 C33.5041009,68.6003878 34.955205,65.6309141 32.7318612,66.3644598 C31.6138801,66.8383657 32.1514196,68.0659834 33.1129338,68.3306648 Z M44.4290221,70.3523269 C42.5236593,70.6220499 43.9268139,73.7856233 45.0876972,71.9656233 C44.7167192,69.901108 47.6214511,70.8211911 46.8870662,68.3785596 C48.5880126,67.9676731 47.8309148,65.5275623 46.0895899,66.3770637 C46.0113565,67.9727147 44.9463722,69.1020222 44.4290221,70.3523269 Z M12.348265,68.3659557 C13.5949527,69.2633518 13.7539432,66.6064543 12.4946372,67.1206925 C11.755205,67.4131025 11.2807571,68.1668144 12.348265,68.3659557 Z M16.1085174,68.3785596 C16.8782334,67.6979501 15.3741325,66.8837396 14.7205047,67.1232133 C13.1936909,67.3601662 15.2984227,69.6616343 16.1085174,68.3785596 Z M36.244795,68.8423823 C35.2883281,70.5791967 38.7457413,70.8640443 37.5394322,69.16 C36.2700315,68.5852632 37.8826498,66.0670083 35.7299685,67.1635457 C34.0416404,67.2492521 35.2630915,68.6583657 36.244795,68.8423823 Z M42.2712934,69.4851801 C41.6731861,71.1287258 44.6586751,70.2288089 43.7526814,68.8423823 C45.7842271,68.3911634 45.133123,66.553518 43.088959,66.9820499 C43.1596215,67.9500277 42.9602524,68.7919668 42.2712934,69.4851801 Z M65.3880126,68.4138504 C66.3621451,67.710554 65.473817,66.6921607 64.5173502,67.1610249 C62.9753943,67.5315789 63.9394322,69.4423269 65.3880126,68.4138504 Z M31.2,72.2807202 C31.0410095,70.9295845 33.7488959,69.1398338 31.8485804,68.3911634 C31.5003155,69.1121053 29.4334385,72.0059557 31.2,72.2807202 Z M48.8025237,72.2807202 C50.4479495,72.0311634 48.6763407,68.8322992 47.9671924,68.3533518 C46.4757098,69.3893906 48.9564669,70.8917729 48.8025237,72.2807202 Z M33.2365931,74.8191413 C33.4460568,73.3470083 34.8794953,70.5892798 32.0883281,70.6170083 C32.6511041,71.9051247 30.4656151,75.7896399 33.2365931,74.8191413 Z M46.6347003,74.6855402 C49.2820189,76.3139612 47.8687697,71.0657064 47.5280757,70.6749861 C45.014511,70.9270637 46.8164038,73.2739058 46.6347003,74.6855402 Z M37.473817,74.4763158 C38.4832808,74.7788089 38.4555205,76.9214681 39.7274448,76.2106094 C40.4946372,74.5872299 38.0492114,74.0225762 37.9583596,72.6260665 C38.3192429,71.9731856 38.6725552,70.5842382 37.4258675,70.879169 C37.6328076,71.9051247 35.7097792,73.6948753 37.473817,74.4763158 Z M41.8347003,73.2865097 C41.1911672,74.1612188 39.659306,74.9174515 40.2725552,76.2106094 C41.4763407,76.9189474 41.5041009,74.9477008 42.3722397,74.5771468 C44.1009464,73.9923269 42.851735,70.9094183 41.9709779,70.9068975 C41.0397476,71.474072 42.5842271,72.5680886 41.8347003,73.2865097 Z M35.6921136,74.7485596 C35.9671924,74.0654294 35.651735,72.5832133 34.6624606,72.8831856 C33.370347,73.4478393 34.4958991,75.5148753 35.6921136,74.7485596 Z M44.9085174,74.8720776 C46.2763407,74.9653463 46.185489,72.4344875 44.7520505,72.8932687 C44.2069401,73.339446 43.762776,74.9703878 44.9085174,74.8720776 Z M34.3798107,77.1659834 C35.4195584,76.6593075 34.4504732,75.0107202 33.6403785,75.1720499 C32.4845426,75.608144 33.244164,77.8944875 34.3798107,77.1659834 Z M36.7268139,76.7349307 C37.8321767,77.1407756 36.6637224,78.8876731 37.8498423,79.1095014 C40.5047319,78.7162604 37.8195584,75.5552078 36.6485804,75.1947368 C35.7577287,75.3711911 36.0630915,76.462687 36.7268139,76.7349307 Z M42.4630915,78.9935457 C42.0365931,77.4836011 45.1709779,75.7417452 42.9804416,75.1493629 C42.0012618,76.3442105 39.540694,79.1876454 42.4630915,78.9935457 Z M45.7867508,77.2592521 C47.1242902,77.7255956 47.3463722,74.9426593 46.0290221,75.1720499 C45.2113565,75.53 44.7293375,76.8735734 45.7867508,77.2592521 Z M33.8195584,78.6960942 C34.6069401,77.7785319 33.1104101,77.1180886 32.333123,77.2138781 C31.4599369,77.7785319 32.8731861,79.8304432 33.8195584,78.6960942 Z M35.7728707,79.124626 C36.9917981,78.6355956 36.5022082,76.6945983 35.1091483,77.226482 C34.288959,77.8944875 34.5337539,79.4195568 35.7728707,79.124626 Z M45.0044164,78.9960665 C46.0567823,78.4162881 44.9539432,76.6693906 43.9116719,77.249169 C42.8870662,77.8642382 43.9722397,79.7119668 45.0044164,78.9960665 Z M46.1804416,78.6960942 C47.2656151,80.1228532 48.8504732,77.0147368 47.2731861,77.2088366 C46.5716088,77.327313 45.4611987,77.8995291 46.1804416,78.6960942 Z M41.4107256,80.4681994 C42.3722397,79.2355402 40.0227129,78.9380886 39.2858044,79.2431025 C36.7091483,79.8808587 40.5022082,82.2655125 41.4107256,80.4681994 Z M34.9350158,81.1412465 C35.0334385,80.5387812 35.318612,79.3792244 34.3444795,79.4951801 C32.8883281,79.6035734 33.7943218,81.4689474 34.9350158,81.1412465 Z M36.237224,81.3454294 C38.162776,82.1067036 37.5495268,79.0616066 36.1993691,79.4775346 C35.6946372,79.9942936 35.3539432,81.012687 36.237224,81.3454294 Z M43.762776,81.3454294 C44.8050473,81.0454571 44.2044164,79.192687 43.2630915,79.4649307 C42.2662461,79.9388366 42.1753943,81.945374 43.762776,81.3454294 Z M45.0649842,81.1412465 C46.3621451,81.4790305 47.0561514,79.3893075 45.4712934,79.4724931 C44.6460568,79.6111357 45.0246057,80.5690305 45.0649842,81.1412465 Z M38.2712934,83.6796676 C36.8,83.6721053 37.7413249,85.2122992 38.7785489,84.8972022 C38.2031546,83.5838781 40.7772871,81.7260665 38.4479495,81.4916343 C37.1154574,81.7033795 37.9230284,82.9259557 38.2712934,83.6796676 Z M41.2214511,84.8972022 C42.2586751,85.2122992 43.2,83.6721053 41.7287066,83.6796676 C42.4706625,82.7923546 42.5438486,81.1437673 41.0195584,81.5193629 C39.4826498,82.5453186 41.948265,83.5259003 41.2214511,84.8972022 Z"></path>
        </g>
    </g>
</svg>